<svg width="189" height="156" viewBox="0 0 189 156" fill="none" xmlns="http://www.w3.org/2000/svg">
<g opacity="0.4" filter="url(#filter0_f_616_6562)">
<g clip-path="url(#clip0_616_6562)">
<path d="M189 86C189 47.3401 157.66 16 119 16C80.3401 16 49 47.3401 49 86C49 124.66 80.3401 156 119 156C157.66 156 189 124.66 189 86Z" fill="#6F6FFB"/>
<path d="M88.375 107.875C94.4156 107.875 99.3125 102.978 99.3125 96.9375C99.3125 90.8969 94.4156 86 88.375 86C82.3344 86 77.4375 90.8969 77.4375 96.9375C77.4375 102.978 82.3344 107.875 88.375 107.875Z" fill="#F0BD70"/>
<path d="M88.375 105.687H125.562V160.091C125.562 160.091 117.593 164.75 106.969 164.75C96.3441 164.75 88.375 157.144 88.375 157.144V105.687Z" fill="#F0BD70"/>
<path d="M125.562 133.836C125.562 146.204 123.632 145.032 111.087 145.032C98.5417 145.032 92.7535 135.007 92.7535 122.638C92.7535 110.27 92.2767 99.125 102.4 99.125C131.03 100.219 125.562 121.468 125.562 133.836Z" fill="#E9B05B"/>
<path d="M149.376 94.9687C149.376 114.486 157.44 138.485 122.282 138.485C87.1246 138.485 87.1246 114.486 87.1246 94.9687C81.8133 71.7812 82.9071 44.4375 119.001 44.4375C155.095 44.4375 149.376 75.4497 149.376 94.9687Z" fill="#FFCB7E"/>
<path d="M132.125 105.687H129.938C128.729 105.687 127.75 106.667 127.75 107.875C127.75 109.083 128.729 110.062 129.938 110.062H132.125C133.333 110.062 134.312 109.083 134.312 107.875C134.312 106.667 133.333 105.687 132.125 105.687Z" fill="#F0BD70"/>
<path d="M132.125 147.25H84C73.1269 147.25 64.3125 156.064 64.3125 166.937V177.875C64.3125 188.748 73.1269 197.562 84 197.562H132.125C142.998 197.562 151.812 188.748 151.812 177.875V166.937C151.812 156.064 142.998 147.25 132.125 147.25Z" fill="#E05A33"/>
<path fill-rule="evenodd" clip-rule="evenodd" d="M149.555 87.0566C151.371 86.0319 152.761 84.3925 153.475 82.4336C154.189 80.4748 154.179 78.3255 153.449 76.3728C155.446 75.4101 157.003 73.7254 157.805 71.659C158.608 69.5925 158.596 67.2985 157.773 65.2403C156.949 63.1821 155.375 61.5133 153.369 60.5709C151.362 59.6285 149.073 59.4829 146.963 60.1634C150.063 68.2003 149.835 78.1403 149.555 87.0566Z" fill="#47280B"/>
<path fill-rule="evenodd" clip-rule="evenodd" d="M128.4 65.7875C126.406 67.5399 123.842 68.5044 121.188 68.5C118.767 68.5039 116.414 67.7011 114.5 66.2184C113.08 67.6378 111.395 68.7632 109.539 69.5301C107.684 70.2969 105.695 70.6902 103.688 70.6875C102.172 70.6885 100.664 70.4644 99.2141 70.0225C98.6439 70.6465 97.9867 71.1851 97.2628 71.6215C98.124 72.6462 98.7386 73.8548 99.0593 75.1543C99.3801 76.4538 99.3984 77.8095 99.113 79.1172C98.8275 80.4249 98.2458 81.6496 97.4127 82.6973C96.5797 83.7449 95.5173 84.5874 94.3075 85.16C94.6686 85.6546 94.884 86.2403 94.9295 86.851C94.9749 87.4617 94.8486 88.0729 94.5648 88.6155C94.281 89.1581 93.851 89.6105 93.3234 89.9214C92.7959 90.2323 92.1919 90.3895 91.5797 90.375C90.5073 92.2408 88.785 93.646 86.7418 94.322C84.6987 94.998 82.4781 94.8973 80.5045 94.0393C78.5309 93.1812 76.9428 91.6259 76.0437 89.6706C75.1445 87.7154 74.9975 85.4974 75.6306 83.4406C74.8155 82.6291 74.1689 81.6643 73.7282 80.6018C73.2874 79.5394 73.0612 78.4002 73.0625 77.25C73.0625 74.8306 74.0447 72.6409 75.6306 71.0594C75.2081 69.6775 75.1344 68.2125 75.4161 66.7952C75.6978 65.3779 76.3262 64.0524 77.245 62.9372C76.107 60.932 75.4363 58.6957 75.283 56.3952C75.1296 54.0947 75.4975 51.7892 76.3592 49.6507C77.2209 47.5122 78.5543 45.5957 80.2598 44.0443C81.9653 42.4928 83.9991 41.3463 86.2094 40.6903C86.0957 39.1182 86.4088 37.5446 87.1155 36.1358C87.8222 34.7269 88.8964 33.5351 90.2245 32.6863C91.5526 31.8375 93.0854 31.3632 94.6608 31.3135C96.2362 31.2638 97.7957 31.6406 99.1747 32.404C100.519 30.0759 102.452 28.1428 104.78 26.7992C107.108 25.4556 109.749 24.7488 112.438 24.75C115.441 24.75 118.243 25.614 120.608 27.1103C122.232 25.3605 124.271 24.0478 126.536 23.2931C128.801 22.5384 131.219 22.366 133.569 22.7919C135.918 23.2177 138.122 24.228 139.978 25.7297C141.834 27.2314 143.282 29.1761 144.189 31.3847C145.346 31.5347 146.462 31.9146 147.47 32.5022C148.478 33.0898 149.359 33.873 150.06 34.806C150.761 35.7389 151.268 36.8026 151.552 37.9345C151.835 39.0664 151.89 40.2436 151.712 41.3969C155.77 44.4025 158.375 49.0575 158.375 54.2812C158.375 63.3419 150.539 70.6875 140.875 70.6875C135.99 70.6875 131.574 68.8106 128.4 65.7875Z" fill="#47280B"/>
<path d="M112.281 116.625C112.281 116.045 112.512 115.488 112.922 115.078C113.332 114.668 113.889 114.437 114.469 114.437H134.469C135.049 114.437 135.606 114.668 136.016 115.078C136.426 115.488 136.657 116.045 136.657 116.625C136.657 119.526 135.504 122.308 133.453 124.359C131.402 126.41 128.62 127.562 125.719 127.562H123.219C120.318 127.562 117.536 126.41 115.485 124.359C113.434 122.308 112.281 119.526 112.281 116.625Z" fill="#66253C"/>
<path fill-rule="evenodd" clip-rule="evenodd" d="M129.402 126.928C128.22 127.35 126.975 127.564 125.72 127.563H123.22C120.395 127.563 117.679 126.469 115.642 124.512C113.605 122.555 112.404 119.885 112.291 117.063C113.962 116.437 116.443 116.509 118.891 116.581C119.669 116.603 120.444 116.625 121.188 116.625C126.022 116.625 129.938 120.053 129.938 124.281C129.938 125.211 129.747 126.103 129.402 126.928Z" fill="#B03E67"/>
<path d="M114.625 114.437H136.5V116.625C136.5 117.205 136.27 117.762 135.859 118.172C135.449 118.582 134.893 118.812 134.312 118.812H116.812C116.232 118.812 115.676 118.582 115.266 118.172C114.855 117.762 114.625 117.205 114.625 116.625V114.437Z" fill="white"/>
<path d="M121.188 98.0312C121.188 96.2191 119.718 94.75 117.906 94.75C116.094 94.75 114.625 96.2191 114.625 98.0312V100.219C114.625 102.031 116.094 103.5 117.906 103.5C119.718 103.5 121.188 102.031 121.188 100.219V98.0312Z" fill="#1B0B47"/>
<path d="M143.062 98.0312C143.062 96.2191 141.593 94.75 139.781 94.75C137.969 94.75 136.5 96.2191 136.5 98.0312V100.219C136.5 102.031 137.969 103.5 139.781 103.5C141.593 103.5 143.062 102.031 143.062 100.219V98.0312Z" fill="#1B0B47"/>
<path d="M109.156 101.312H104.781C102.969 101.312 101.5 102.782 101.5 104.594C101.5 106.406 102.969 107.875 104.781 107.875H109.156C110.968 107.875 112.438 106.406 112.438 104.594C112.438 102.782 110.968 101.312 109.156 101.312Z" fill="#FF859B"/>
<path d="M148.531 101.312H146.344C144.532 101.312 143.062 102.782 143.062 104.594C143.062 106.406 144.532 107.875 146.344 107.875H148.531C150.343 107.875 151.812 106.406 151.812 104.594C151.812 102.782 150.343 101.312 148.531 101.312Z" fill="#FF859B"/>
</g>
</g>
<defs>
<filter id="filter0_f_616_6562" x="35" y="1.99999" width="168" height="168" filterUnits="userSpaceOnUse" color-interpolation-filters="sRGB">
<feFlood flood-opacity="0" result="BackgroundImageFix"/>
<feBlend mode="normal" in="SourceGraphic" in2="BackgroundImageFix" result="shape"/>
<feGaussianBlur stdDeviation="7" result="effect1_foregroundBlur_616_6562"/>
</filter>
<clipPath id="clip0_616_6562">
<rect x="49" y="16" width="140" height="140" rx="70" fill="white"/>
</clipPath>
</defs>
</svg>
